<svg id="visual" viewBox="0 0 900 450" width="900" height="450" xmlns="http://www.w3.org/2000/svg" xmlns:xlink="http://www.w3.org/1999/xlink" version="1.1"><g stroke-width="1" stroke-linejoin="bevel"><path d="M430.4 269.1L504.6 231.1L458.4 159.9Z" fill="#c6c6c6" stroke="#c6c6c6"></path><path d="M545.8 153.9L461.6 145.9L458.4 159.9Z" fill="#474747" stroke="#474747"></path><path d="M458.4 159.9L342.2 155.9L430.4 269.1Z" fill="#000000" stroke="#000000"></path><path d="M520.6 108.3L473.6 113.6L461.6 145.9Z" fill="#474747" stroke="#474747"></path><path d="M504.6 231.1L545.8 153.9L458.4 159.9Z" fill="#474747" stroke="#474747"></path><path d="M473.6 113.6L378.4 118.6L461.6 145.9Z" fill="#c6c6c6" stroke="#c6c6c6"></path><path d="M461.6 145.9L378.4 118.6L458.4 159.9Z" fill="#777777" stroke="#777777"></path><path d="M378.4 118.6L342.2 155.9L458.4 159.9Z" fill="#1b1b1b" stroke="#1b1b1b"></path><path d="M545.8 153.9L520.6 108.3L461.6 145.9Z" fill="#ffffff" stroke="#ffffff"></path><path d="M377.4 28.3L349.2 106.3L378.4 118.6Z" fill="#5e5e5e" stroke="#5e5e5e"></path><path d="M342.2 155.9L314.9 216.1L430.4 269.1Z" fill="#ffffff" stroke="#ffffff"></path><path d="M545.8 153.9L524.8 96.6L520.6 108.3Z" fill="#474747" stroke="#474747"></path><path d="M520.6 108.3L524.8 96.6L473.6 113.6Z" fill="#5e5e5e" stroke="#5e5e5e"></path><path d="M314.9 216.1L308.2 241.1L430.4 269.1Z" fill="#777777" stroke="#777777"></path><path d="M542.8 353.7L596.8 236.1L504.6 231.1Z" fill="#e2e2e2" stroke="#e2e2e2"></path><path d="M504.6 231.1L596.8 236.1L545.8 153.9Z" fill="#919191" stroke="#919191"></path><path d="M545.8 153.9L627.1 87.6L524.8 96.6Z" fill="#ffffff" stroke="#ffffff"></path><path d="M377.4 28.3L378.4 118.6L473.6 113.6Z" fill="#1b1b1b" stroke="#1b1b1b"></path><path d="M378.4 118.6L349.2 106.3L342.2 155.9Z" fill="#c6c6c6" stroke="#c6c6c6"></path><path d="M342.2 155.9L288.9 112.6L314.9 216.1Z" fill="#c6c6c6" stroke="#c6c6c6"></path><path d="M308.2 241.1L381.4 355.7L430.4 269.1Z" fill="#ababab" stroke="#ababab"></path><path d="M430.4 269.1L505.6 363.4L504.6 231.1Z" fill="#e2e2e2" stroke="#e2e2e2"></path><path d="M381.4 355.7L392.2 361.4L430.4 269.1Z" fill="#ababab" stroke="#ababab"></path><path d="M392.2 361.4L505.6 363.4L430.4 269.1Z" fill="#000000" stroke="#000000"></path><path d="M505.6 363.4L517.8 361.4L504.6 231.1Z" fill="#ababab" stroke="#ababab"></path><path d="M381.4 355.7L390.4 368.4L392.2 361.4Z" fill="#000000" stroke="#000000"></path><path d="M392.2 361.4L390.4 368.4L505.6 363.4Z" fill="#ffffff" stroke="#ffffff"></path><path d="M596.8 236.1L605.1 158.9L545.8 153.9Z" fill="#1b1b1b" stroke="#1b1b1b"></path><path d="M517.8 361.4L542.8 353.7L504.6 231.1Z" fill="#ababab" stroke="#ababab"></path><path d="M505.6 363.4L529.6 374.7L517.8 361.4Z" fill="#e2e2e2" stroke="#e2e2e2"></path><path d="M517.8 361.4L529.6 374.7L542.8 353.7Z" fill="#777777" stroke="#777777"></path><path d="M480.6 450L529.6 374.7L505.6 363.4Z" fill="#474747" stroke="#474747"></path><path d="M637.1 293.4L621.1 289.1L661.1 347.7Z" fill="#303030" stroke="#303030"></path><path d="M542.8 353.7L621.1 289.1L596.8 236.1Z" fill="#474747" stroke="#474747"></path><path d="M596.8 236.1L674.3 172.9L605.1 158.9Z" fill="#1b1b1b" stroke="#1b1b1b"></path><path d="M349.2 106.3L288.9 112.6L342.2 155.9Z" fill="#474747" stroke="#474747"></path><path d="M314.9 216.1L238.9 207.9L308.2 241.1Z" fill="#ababab" stroke="#ababab"></path><path d="M377.4 28.3L297.2 99.6L349.2 106.3Z" fill="#303030" stroke="#303030"></path><path d="M349.2 106.3L297.2 99.6L288.9 112.6Z" fill="#474747" stroke="#474747"></path><path d="M502.6 0L377.4 28.3L473.6 113.6Z" fill="#1b1b1b" stroke="#1b1b1b"></path><path d="M661.1 347.7L621.1 289.1L542.8 353.7Z" fill="#c6c6c6" stroke="#c6c6c6"></path><path d="M621.1 289.1L637.1 293.4L596.8 236.1Z" fill="#ffffff" stroke="#ffffff"></path><path d="M627.1 87.6L551.8 35.3L524.8 96.6Z" fill="#c6c6c6" stroke="#c6c6c6"></path><path d="M524.8 96.6L502.6 0L473.6 113.6Z" fill="#919191" stroke="#919191"></path><path d="M288.9 112.6L238.9 207.9L314.9 216.1Z" fill="#1b1b1b" stroke="#1b1b1b"></path><path d="M308.2 241.1L274.9 345.4L381.4 355.7Z" fill="#ababab" stroke="#ababab"></path><path d="M381.4 355.7L307.2 410.7L390.4 368.4Z" fill="#ffffff" stroke="#ffffff"></path><path d="M210.7 312.4L274.9 345.4L308.2 241.1Z" fill="#303030" stroke="#303030"></path><path d="M674.3 172.9L627.1 87.6L605.1 158.9Z" fill="#ababab" stroke="#ababab"></path><path d="M605.1 158.9L627.1 87.6L545.8 153.9Z" fill="#c6c6c6" stroke="#c6c6c6"></path><path d="M531.8 0L502.6 0L551.8 35.3Z" fill="#ababab" stroke="#ababab"></path><path d="M551.8 35.3L502.6 0L524.8 96.6Z" fill="#e2e2e2" stroke="#e2e2e2"></path><path d="M502.6 0L387.4 0L377.4 28.3Z" fill="#1b1b1b" stroke="#1b1b1b"></path><path d="M377.4 28.3L322.9 0L297.2 99.6Z" fill="#474747" stroke="#474747"></path><path d="M637.1 293.4L674.3 172.9L596.8 236.1Z" fill="#000000" stroke="#000000"></path><path d="M590.1 0L531.8 0L551.8 35.3Z" fill="#ffffff" stroke="#ffffff"></path><path d="M390.4 368.4L480.6 450L505.6 363.4Z" fill="#c6c6c6" stroke="#c6c6c6"></path><path d="M664.3 384.7L661.1 347.7L542.8 353.7Z" fill="#777777" stroke="#777777"></path><path d="M401.4 450L480.6 450L390.4 368.4Z" fill="#ffffff" stroke="#ffffff"></path><path d="M371.2 450L401.4 450L390.4 368.4Z" fill="#ffffff" stroke="#ffffff"></path><path d="M199.7 87.3L212.7 173.6L288.9 112.6Z" fill="#474747" stroke="#474747"></path><path d="M288.9 112.6L212.7 173.6L238.9 207.9Z" fill="#1b1b1b" stroke="#1b1b1b"></path><path d="M387.4 0L343.2 0L377.4 28.3Z" fill="#000000" stroke="#000000"></path><path d="M227.9 70.3L288.9 112.6L297.2 99.6Z" fill="#777777" stroke="#777777"></path><path d="M238.9 207.9L210.7 312.4L308.2 241.1Z" fill="#777777" stroke="#777777"></path><path d="M274.9 345.4L307.2 410.7L381.4 355.7Z" fill="#777777" stroke="#777777"></path><path d="M649.3 0L612.1 34.3L627.1 87.6Z" fill="#ababab" stroke="#ababab"></path><path d="M627.1 87.6L612.1 34.3L551.8 35.3Z" fill="#ffffff" stroke="#ffffff"></path><path d="M307.2 410.7L371.2 450L390.4 368.4Z" fill="#303030" stroke="#303030"></path><path d="M664.3 384.7L542.8 353.7L631.1 450Z" fill="#ababab" stroke="#ababab"></path><path d="M726.3 280.1L724.5 194.9L674.3 172.9Z" fill="#5e5e5e" stroke="#5e5e5e"></path><path d="M343.2 0L322.9 0L377.4 28.3Z" fill="#919191" stroke="#919191"></path><path d="M480.6 450L540.8 450L529.6 374.7Z" fill="#ffffff" stroke="#ffffff"></path><path d="M612.1 34.3L590.1 0L551.8 35.3Z" fill="#c6c6c6" stroke="#c6c6c6"></path><path d="M176.7 260.1L210.7 312.4L238.9 207.9Z" fill="#1b1b1b" stroke="#1b1b1b"></path><path d="M274.9 345.4L274.9 423.7L307.2 410.7Z" fill="#e2e2e2" stroke="#e2e2e2"></path><path d="M151.5 166.6L187.7 197.9L212.7 173.6Z" fill="#c6c6c6" stroke="#c6c6c6"></path><path d="M212.7 173.6L187.7 197.9L238.9 207.9Z" fill="#ababab" stroke="#ababab"></path><path d="M322.9 0L227.9 70.3L297.2 99.6Z" fill="#474747" stroke="#474747"></path><path d="M246.7 432.7L274.9 423.7L274.9 345.4Z" fill="#474747" stroke="#474747"></path><path d="M307.2 410.7L269.9 450L371.2 450Z" fill="#e2e2e2" stroke="#e2e2e2"></path><path d="M631.1 450L542.8 353.7L529.6 374.7Z" fill="#e2e2e2" stroke="#e2e2e2"></path><path d="M726.3 280.1L674.3 172.9L637.1 293.4Z" fill="#ffffff" stroke="#ffffff"></path><path d="M726.3 280.1L637.1 293.4L661.1 347.7Z" fill="#ababab" stroke="#ababab"></path><path d="M674.3 172.9L722.3 130.6L627.1 87.6Z" fill="#1b1b1b" stroke="#1b1b1b"></path><path d="M612.1 34.3L649.3 0L590.1 0Z" fill="#303030" stroke="#303030"></path><path d="M187.7 197.9L176.7 260.1L238.9 207.9Z" fill="#000000" stroke="#000000"></path><path d="M246.7 432.7L269.9 450L274.9 423.7Z" fill="#ababab" stroke="#ababab"></path><path d="M227.9 70.3L199.7 87.3L288.9 112.6Z" fill="#000000" stroke="#000000"></path><path d="M187.7 197.9L124.5 198.9L176.7 260.1Z" fill="#ffffff" stroke="#ffffff"></path><path d="M179.5 0L199.7 87.3L227.9 70.3Z" fill="#ffffff" stroke="#ffffff"></path><path d="M725.3 369.4L726.3 280.1L661.1 347.7Z" fill="#e2e2e2" stroke="#e2e2e2"></path><path d="M724.5 194.9L722.3 130.6L674.3 172.9Z" fill="#1b1b1b" stroke="#1b1b1b"></path><path d="M726.3 280.1L740.5 227.1L724.5 194.9Z" fill="#919191" stroke="#919191"></path><path d="M790.5 131.6L735.5 101.3L722.3 130.6Z" fill="#1b1b1b" stroke="#1b1b1b"></path><path d="M733.3 96.3L649.3 0L627.1 87.6Z" fill="#ababab" stroke="#ababab"></path><path d="M246.7 432.7L274.9 345.4L210.7 312.4Z" fill="#e2e2e2" stroke="#e2e2e2"></path><path d="M274.9 423.7L269.9 450L307.2 410.7Z" fill="#777777" stroke="#777777"></path><path d="M540.8 450L631.1 450L529.6 374.7Z" fill="#474747" stroke="#474747"></path><path d="M664.3 384.7L725.3 369.4L661.1 347.7Z" fill="#e2e2e2" stroke="#e2e2e2"></path><path d="M233.7 450L246.7 432.7L162.5 450Z" fill="#ababab" stroke="#ababab"></path><path d="M199.7 87.3L151.5 166.6L212.7 173.6Z" fill="#e2e2e2" stroke="#e2e2e2"></path><path d="M322.9 0L234.7 0L227.9 70.3Z" fill="#777777" stroke="#777777"></path><path d="M112.2 200.9L124.5 198.9L151.5 166.6Z" fill="#5e5e5e" stroke="#5e5e5e"></path><path d="M735.5 101.3L733.3 96.3L722.3 130.6Z" fill="#303030" stroke="#303030"></path><path d="M722.3 130.6L733.3 96.3L627.1 87.6Z" fill="#e2e2e2" stroke="#e2e2e2"></path><path d="M790.5 131.6L722.3 130.6L724.5 194.9Z" fill="#000000" stroke="#000000"></path><path d="M715.5 421.7L725.3 369.4L664.3 384.7Z" fill="#ababab" stroke="#ababab"></path><path d="M726.3 280.1L790.8 241.1L740.5 227.1Z" fill="#5e5e5e" stroke="#5e5e5e"></path><path d="M162.5 450L246.7 432.7L210.7 312.4Z" fill="#474747" stroke="#474747"></path><path d="M246.7 432.7L233.7 450L269.9 450Z" fill="#777777" stroke="#777777"></path><path d="M112.2 200.9L151.5 166.6L114.2 111.6Z" fill="#474747" stroke="#474747"></path><path d="M151.5 166.6L124.5 198.9L187.7 197.9Z" fill="#919191" stroke="#919191"></path><path d="M108.5 312.4L125.5 352.7L210.7 312.4Z" fill="#e2e2e2" stroke="#e2e2e2"></path><path d="M631.1 450L688.3 450L664.3 384.7Z" fill="#919191" stroke="#919191"></path><path d="M688.3 450L715.5 421.7L664.3 384.7Z" fill="#ababab" stroke="#ababab"></path><path d="M114.2 111.6L151.5 166.6L199.7 87.3Z" fill="#1b1b1b" stroke="#1b1b1b"></path><path d="M94.2 238.1L99.5 277.1L176.7 260.1Z" fill="#1b1b1b" stroke="#1b1b1b"></path><path d="M794.5 287.4L790.8 241.1L726.3 280.1Z" fill="#000000" stroke="#000000"></path><path d="M740.5 227.1L790.8 241.1L724.5 194.9Z" fill="#e2e2e2" stroke="#e2e2e2"></path><path d="M794.5 287.4L726.3 280.1L725.3 369.4Z" fill="#5e5e5e" stroke="#5e5e5e"></path><path d="M234.7 0L179.5 0L227.9 70.3Z" fill="#303030" stroke="#303030"></path><path d="M790.8 241.1L790.5 131.6L724.5 194.9Z" fill="#919191" stroke="#919191"></path><path d="M735.5 101.3L800.8 98.3L733.3 96.3Z" fill="#1b1b1b" stroke="#1b1b1b"></path><path d="M733.3 96.3L783.5 0L649.3 0Z" fill="#ababab" stroke="#ababab"></path><path d="M130.5 30.3L114.2 111.6L199.7 87.3Z" fill="#e2e2e2" stroke="#e2e2e2"></path><path d="M866.8 309.4L794.5 287.4L859.8 374.7Z" fill="#919191" stroke="#919191"></path><path d="M900 151.9L800.8 98.3L790.5 131.6Z" fill="#303030" stroke="#303030"></path><path d="M108.5 312.4L210.7 312.4L176.7 260.1Z" fill="#ababab" stroke="#ababab"></path><path d="M99.5 277.1L108.5 312.4L176.7 260.1Z" fill="#777777" stroke="#777777"></path><path d="M176.7 260.1L124.5 198.9L94.2 238.1Z" fill="#303030" stroke="#303030"></path><path d="M800.8 98.3L790.8 115.6L790.5 131.6Z" fill="#000000" stroke="#000000"></path><path d="M790.5 131.6L790.8 115.6L735.5 101.3Z" fill="#303030" stroke="#303030"></path><path d="M94.2 238.1L124.5 198.9L112.2 200.9Z" fill="#1b1b1b" stroke="#1b1b1b"></path><path d="M0 244.1L94.2 238.1L0 178.9Z" fill="#ababab" stroke="#ababab"></path><path d="M179.5 0L130.5 30.3L199.7 87.3Z" fill="#000000" stroke="#000000"></path><path d="M869.8 191.9L790.5 131.6L790.8 241.1Z" fill="#ffffff" stroke="#ffffff"></path><path d="M790.8 115.6L800.8 98.3L735.5 101.3Z" fill="#919191" stroke="#919191"></path><path d="M125.5 352.7L162.5 450L210.7 312.4Z" fill="#c6c6c6" stroke="#c6c6c6"></path><path d="M61.2 397.7L162.5 450L125.5 352.7Z" fill="#777777" stroke="#777777"></path><path d="M688.3 450L748.5 450L715.5 421.7Z" fill="#474747" stroke="#474747"></path><path d="M715.5 421.7L748.5 450L725.3 369.4Z" fill="#c6c6c6" stroke="#c6c6c6"></path><path d="M130.5 30.3L109.2 27.3L114.2 111.6Z" fill="#ffffff" stroke="#ffffff"></path><path d="M0 244.1L99.5 277.1L94.2 238.1Z" fill="#ababab" stroke="#ababab"></path><path d="M108.2 0L109.2 27.3L130.5 30.3Z" fill="#5e5e5e" stroke="#5e5e5e"></path><path d="M800.8 98.3L783.5 0L733.3 96.3Z" fill="#777777" stroke="#777777"></path><path d="M179.5 0L108.2 0L130.5 30.3Z" fill="#777777" stroke="#777777"></path><path d="M94.2 238.1L112.2 200.9L0 178.9Z" fill="#919191" stroke="#919191"></path><path d="M866.8 309.4L790.8 241.1L794.5 287.4Z" fill="#474747" stroke="#474747"></path><path d="M900 250.1L869.8 191.9L790.8 241.1Z" fill="#000000" stroke="#000000"></path><path d="M800.8 98.3L817.8 0L783.5 0Z" fill="#777777" stroke="#777777"></path><path d="M99.5 277.1L39.2 316.4L108.5 312.4Z" fill="#5e5e5e" stroke="#5e5e5e"></path><path d="M108.5 312.4L39.2 316.4L125.5 352.7Z" fill="#5e5e5e" stroke="#5e5e5e"></path><path d="M0 244.1L39.2 316.4L99.5 277.1Z" fill="#ababab" stroke="#ababab"></path><path d="M112.2 200.9L114.2 111.6L0 178.9Z" fill="#5e5e5e" stroke="#5e5e5e"></path><path d="M900 53.3L817.8 0L800.8 98.3Z" fill="#1b1b1b" stroke="#1b1b1b"></path><path d="M859.8 374.7L794.5 287.4L725.3 369.4Z" fill="#303030" stroke="#303030"></path><path d="M39.2 316.4L61.2 397.7L125.5 352.7Z" fill="#e2e2e2" stroke="#e2e2e2"></path><path d="M748.5 450L816.8 450L725.3 369.4Z" fill="#c6c6c6" stroke="#c6c6c6"></path><path d="M816.8 450L859.8 374.7L725.3 369.4Z" fill="#ffffff" stroke="#ffffff"></path><path d="M0 178.9L114.2 111.6L0 96.6Z" fill="#474747" stroke="#474747"></path><path d="M39.2 316.4L0 347.7L61.2 397.7Z" fill="#e2e2e2" stroke="#e2e2e2"></path><path d="M866.8 309.4L900 250.1L790.8 241.1Z" fill="#474747" stroke="#474747"></path><path d="M869.8 191.9L900 151.9L790.5 131.6Z" fill="#c6c6c6" stroke="#c6c6c6"></path><path d="M900 341.4L900 250.1L866.8 309.4Z" fill="#ffffff" stroke="#ffffff"></path><path d="M0 96.6L114.2 111.6L0 68.3Z" fill="#ababab" stroke="#ababab"></path><path d="M900 250.1L900 151.9L869.8 191.9Z" fill="#ababab" stroke="#ababab"></path><path d="M0 244.1L0 302.4L39.2 316.4Z" fill="#777777" stroke="#777777"></path><path d="M61.2 397.7L50.2 450L162.5 450Z" fill="#303030" stroke="#303030"></path><path d="M0 450L50.2 450L61.2 397.7Z" fill="#000000" stroke="#000000"></path><path d="M0 68.3L114.2 111.6L109.2 27.3Z" fill="#ffffff" stroke="#ffffff"></path><path d="M900 151.9L900 92.6L800.8 98.3Z" fill="#474747" stroke="#474747"></path><path d="M900 356.7L900 341.4L859.8 374.7Z" fill="#303030" stroke="#303030"></path><path d="M859.8 374.7L900 341.4L866.8 309.4Z" fill="#303030" stroke="#303030"></path><path d="M0 302.4L0 347.7L39.2 316.4Z" fill="#303030" stroke="#303030"></path><path d="M900 450L900 356.7L859.8 374.7Z" fill="#000000" stroke="#000000"></path><path d="M0 0L0 68.3L109.2 27.3Z" fill="#c6c6c6" stroke="#c6c6c6"></path><path d="M900 92.6L900 53.3L800.8 98.3Z" fill="#ffffff" stroke="#ffffff"></path><path d="M108.2 0L0 0L109.2 27.3Z" fill="#303030" stroke="#303030"></path><path d="M900 53.3L900 0L817.8 0Z" fill="#000000" stroke="#000000"></path><path d="M0 347.7L0 450L61.2 397.7Z" fill="#e2e2e2" stroke="#e2e2e2"></path><path d="M816.8 450L900 450L859.8 374.7Z" fill="#919191" stroke="#919191"></path></g></svg>